<svg id="Capa_1" enable-background="new 0 0 512 512" height="512" viewBox="0 0 512 512" width="512" xmlns="http://www.w3.org/2000/svg"><g><g><path d="m68.684 318.058.131-97.408c.048-35.499 28.865-64.239 64.364-64.191l8.13.011c35.499.048 64.239 28.865 64.191 64.364l-.131 97.407c-.048 35.5-28.865 64.239-64.364 64.191l-8.129-.011c-35.501-.047-64.24-28.864-64.192-64.363z" fill="#f7c4db"/><path d="m68.74 318.242-.056-41.823c.035 26.317 21.398 47.622 47.715 47.587l6.027-.008c26.317-.035 47.621-21.398 47.586-47.715l-.097-72.211c-.033-24.635-18.755-44.876-42.736-47.334 1.854-.163 3.725-.265 5.622-.267l8.129-.011c35.5-.048 64.317 28.691 64.364 64.191l.131 97.408c.048 35.5-28.692 64.316-64.191 64.364l-8.129.011c-35.5.047-64.317-28.693-64.365-64.192z" fill="#e893db"/><path d="m481.303 81.858-181.349 402.132c-6.912 15.328-24.941 22.15-40.269 15.237l-21.258-9.587c-15.328-6.912-22.15-24.941-15.237-40.269l181.349-402.131 44.754-31.902c10.413-7.423 24.964-.861 26.294 11.858z" fill="#ffe266"/><path d="m449.293 15.337-44.754 31.903-11.004 24.402 31.758-34.806c7.389-8.099 15.085-4.628 13.906 6.271l-5.064 46.845-171.055 379.305c-6.342 14.064-17.734 22.729-25.812 19.826.382.192.766.381 1.159.558l21.258 9.587c15.328 6.912 33.357.09 40.269-15.237l181.349-402.133-5.716-54.663c-1.331-12.719-15.881-19.281-26.294-11.858z" fill="#efaa66"/><path d="m205.368 318.242.066-49.133-136.684-.184-.066 49.133c-.048 35.5 28.692 64.316 64.191 64.364l8.129.011c35.499.048 64.316-28.692 64.364-64.191z" fill="#b2e7f1"/><path d="m170.004 270.643.007 5.639c.036 26.317-21.269 47.68-47.586 47.716l-6.027.008c-26.317.035-47.68-21.27-47.715-47.587l.056 41.823c.048 35.499 28.865 64.239 64.364 64.191l8.129-.011c35.5-.047 64.239-28.864 64.191-64.364l-.064-47.415z" fill="#a7adf1"/><path d="m449.293 15.337-53.944 45.755s11.252 25.793 32.879 36.038 43.885-1.42 43.885-1.42l3.473-68.515c-1.33-12.719-15.88-19.281-26.293-11.858z" fill="#fef2a8"/><path d="m449.293 15.337-24.838 17.706 30.138 21.398c7.922-.132 15.839-.453 23.751-.886l-2.757-26.361c-1.331-12.718-15.881-19.28-26.294-11.857z" fill="#a183e2"/><path d="m431.969 32.52c4.625-.92 8.043 3.061 7.229 10.586l-.049.452c.657.518 1.326 1.021 2.025 1.492 5.117 3.446 10.703 5.972 16.279 8.518h20.891l-2.758-26.372c-1.33-12.719-15.88-19.281-26.294-11.858l-19.825 14.132c.942.894 1.775 1.923 2.502 3.05z" fill="#9762e2"/><path d="m455.345 52.062c-5.869-1.622-11.265-4.322-16.289-7.637l-4.921 45.526-5.197 11.525h43.518l8.847-19.618-3.05-29.161c-7.57 1.465-15.331 1.459-22.908-.635z" fill="#eeb6a8"/><path d="m239.435 413.351-16.244 36.021c-6.912 15.327-.09 33.357 15.237 40.268l21.258 9.587c15.328 6.912 33.357.09 40.269-15.237l16.365-36.288z" fill="#f7c4db"/><path d="m329.98 411.582-13.661 36.121-76.884-34.352 15.977-35.43z" fill="#b2e7f1"/></g><g><g fill="#440a29"><path d="m215.581 220.848c.055-41.002-33.257-74.404-74.26-74.46l-8.13-.011c-.035 0-.065 0-.1 0-40.954 0-74.303 33.293-74.359 74.259l-.131 97.408c-.027 19.863 7.683 38.546 21.709 52.61s32.689 21.823 52.551 21.85l8.129.011h.104c19.823 0 38.467-7.707 52.506-21.709 14.064-14.025 21.824-32.688 21.85-52.55zm-82.489-54.307h.073l8.129.011c29.883.04 54.163 24.385 54.122 54.268l-.057 42.655-116.52-.157.058-42.655c.04-29.859 24.344-54.122 54.195-54.122zm46.269 189.988c-10.232 10.204-23.819 15.821-38.268 15.821-.025 0-.051 0-.076 0l-8.129-.011c-14.476-.02-28.078-5.675-38.301-15.925s-15.841-23.867-15.822-38.344l.058-42.654 116.52.157-.057 42.654c-.019 14.477-5.675 28.079-15.925 38.302z"/><path d="m129.02 324.406c-3.341 0-6.049 2.709-6.049 6.049v12.199c0 3.341 2.709 6.049 6.049 6.049 3.341 0 6.049-2.709 6.049-6.049v-12.199c0-3.34-2.708-6.049-6.049-6.049z"/><path d="m172.821 302.866c-3.341 0-6.049 2.709-6.049 6.049v12.199c0 3.341 2.709 6.049 6.049 6.049s6.049-2.709 6.049-6.049v-12.199c0-3.341-2.709-6.049-6.049-6.049z"/><path d="m154.869 249.256c3.341 0 6.049-2.709 6.049-6.049v-12.199c0-3.341-2.709-6.049-6.049-6.049s-6.049 2.709-6.049 6.049v12.199c0 3.34 2.709 6.049 6.049 6.049z"/><path d="m490.681 74.599-5.534-52.922c-.904-8.644-6.173-15.937-14.095-19.509-7.921-3.571-16.875-2.692-23.952 2.351l-43.329 30.885c-4.778 3.407-8.579 8.034-10.99 13.382l-178.781 396.441c-9.187 20.37-.088 44.418 20.283 53.605l21.258 9.587c5.391 2.431 11.038 3.581 16.6 3.581 15.456 0 30.249-8.885 37.004-23.864l178.781-396.44c.001-.001.001-.001.001-.001 2.412-5.35 3.364-11.261 2.754-17.096zm-165.208 328.281-20.001-9.019 130.531-289.449c3.83.892 7.621 1.335 11.307 1.334 4.55 0 8.935-.672 13.042-1.956zm-15.978 35.429-58.383-26.328 11.003-24.4 58.383 26.328zm149.31-417.371c1.28-.942 2.803-.923 3.958-.388.781.351 2.121 1.239 2.329 3.223l2.606 24.917c-13.592 1.657-22.579-2.878-28.09-14.068zm-43.329 30.886 14.196-10.119c5.72 10.449 15.666 19.347 32.965 19.347 2.002 0 4.109-.126 6.314-.376l1.675 16.02c.24 2.29-.134 4.61-1.081 6.71l.001-.001-.196.434c-8.412 10.276-22.686 11.53-34.096 7.822-11.456-3.723-23.814-13.774-25.872-30.632l1.782-3.952c.945-2.1 2.437-3.915 4.312-5.253zm-13.612 25.873c3.727 7.655 9.304 13.865 15.747 18.451l-130.52 289.422-20-9.019zm-111.1 402.148c-4.616 10.236-16.699 14.81-26.934 10.191l-21.258-9.587c-10.235-4.616-14.807-16.697-10.191-26.932l13.758-30.507 58.383 26.329z"/></g><path d="m103.293 241.09c-5.568 0-10.083-4.513-10.083-10.082 0-19.021 3.641-29.105 4.056-30.193 0 0 3.584-10.264 12.85-7.004 10.176 3.58 5.987 14.199 5.987 14.199l.035-.094c-.028.077-2.765 7.877-2.765 23.092.002 5.568-4.512 10.082-10.08 10.082z" fill="#fff"/></g><g><path d="m271.754 77.003 8.564 24.08c.367 1.031 1.093 1.848 2.009 2.261l21.394 9.639c3.022 1.362 3.022 6.177 0 7.539l-21.394 9.639c-.916.413-1.642 1.23-2.009 2.261l-8.564 24.079c-1.21 3.402-5.488 3.402-6.698 0l-8.564-24.079c-.367-1.031-1.093-1.848-2.009-2.261l-21.394-9.639c-3.022-1.362-3.022-6.177 0-7.539l21.394-9.639c.916-.413 1.642-1.23 2.009-2.261l8.564-24.08c1.21-3.402 5.489-3.402 6.698 0z" fill="#fef2a8"/><ellipse cx="39.839" cy="101.342" fill="#ffe266" rx="18.699" ry="18.699" transform="matrix(.161 -.987 .987 .161 -66.587 124.383)"/><circle cx="320.664" cy="54.441" fill="#ffe266" r="7.919"/><path d="m167.453 13.589 6.352 17.862c.272.765.81 1.371 1.49 1.677l15.87 7.15c2.242 1.01 2.242 4.582 0 5.593l-15.87 7.15c-.68.306-1.218.912-1.49 1.677l-6.352 17.862c-.898 2.523-4.071 2.523-4.969 0l-6.352-17.862c-.272-.765-.81-1.371-1.49-1.677l-15.87-7.15c-2.242-1.01-2.242-4.582 0-5.593l15.87-7.15c.68-.306 1.218-.912 1.49-1.677l6.352-17.862c.898-2.523 4.072-2.523 4.969 0z" fill="#fef2a8"/></g></g></svg>