<svg id="Capa_1" enable-background="new 0 0 512 512" height="512" viewBox="0 0 512 512" width="512" xmlns="http://www.w3.org/2000/svg"><g><g><circle cx="267.357" cy="293.59" fill="#8bb6ef" r="198.593"/><path d="m164.709 276.307c-51.766 5.171-87.605-39.781-87.605-39.781-8.188 27.233-10.641 56.657-6.124 86.643 11.209 74.419 62.36 132.931 128.398 157.051l.031-.376s13.056-51.695-23.328-59.434-28.57-25.713-30.913-50.212 50.658-39.366 75.61-52.603c24.953-13.237-4.303-46.46-56.069-41.288z" fill="#78eac4"/><path d="m436.165 197.668.397-8.133c-29.85-48.49-79.602-82.296-136.222-91.82l-1.792 3.459s-34.181 68.282-20.313 90.119 20.254 40.932 21.181 57.583 28.416 22.697 30.504 8.767c2.088-13.931-2.625-42.59 10.453-48.755 12.638-5.957 31.673-16.788 41.587.957 13.44 24.052 54.205-12.177 54.205-12.177z" fill="#78eac4"/><path d="m439.686 194.824c-14.84 13.093-34.518 26.119-47.708 23.413 3.361 13.09 5.158 26.808 5.158 40.947 0 90.678-73.509 164.186-164.186 164.186-31.083 0-60.143-8.646-84.921-23.652 1.453 3.306 3.476 6.39 6.219 9.121 8.471 8.437 20.902 9.683 30.306 16.699 8.62 6.431 12.211 15.627 12.95 26.135.636 9.038-.275 18.146-2.06 27.08 22.3 8.667 46.549 13.431 71.914 13.431 109.68 0 198.593-88.913 198.593-198.592-.001-35.956-9.557-69.678-26.265-98.768z" fill="#8388ef"/><g fill="#71afc4"><path d="m462.449 330.924c-.293-.095-115.477-37.633-136.637 1.092-26.442 48.389 21.171 45.966 4.906 83.34-15.123 34.75.991 58.275 5.978 64.363 65.418-24.295 112.85-81.371 125.753-148.795z"/><path d="m199.409 479.844s13.056-51.695-23.328-59.434c-19.86-4.225-26.55-11.499-28.913-21.218-42.622-26.171-72.383-71.251-77.586-123.564-.531 5.918-.817 11.907-.817 17.962 0 1.255.017 2.519.034 3.782.172 8.527.877 17.137 2.181 25.797 11.209 74.419 62.36 132.931 128.398 157.051z"/><path d="m436.562 189.535c-29.85-48.49-79.602-82.296-136.222-91.82l-1.792 3.459s-1.157 2.312-2.955 6.211c47.102 19.458 83.172 60.192 96.228 110.233 17.295 4.085 44.343-19.95 44.343-19.95z"/></g><path d="m425.214 415.68-42.22-72.639 15.529-13.756c13.96-12.366 16.365-32.359 5.233-43.491-11.09-11.09-30.987-8.751-43.373 5.1l-13.961 15.612-72.525-42.596c-6.724-3.485-15.756-1.553-22.02 4.711l-.034.034c-7.641 7.641-8.61 19.061-2.164 25.508l61.358 51.916-36.141 41.677-30.423-6.796c-2.719-1.409-6.372-.628-8.905 1.905l-.014.014c-3.09 3.09-3.482 7.708-.875 10.315l18.73 18.73c-3.642 7.479-2.91 15.956 2.419 21.286 5.327 5.327 13.803 6.062 21.285 2.419l19.244 19.244c2.607 2.607 7.225 2.215 10.315-.875 2.54-2.54 3.318-6.203 1.896-8.923l-6.648-30.407 41.331-36.419 51.768 61.663c6.446 6.446 17.866 5.477 25.508-2.164 6.279-6.282 8.204-15.342 4.687-22.068z" fill="#fef2a8"/></g><g><g fill="#440a29"><path d="m473.779 262.498c-10.166-67.49-51.767-122.613-107.678-152.734 1.802-1.819 2.327-4.656 1.098-7.06-1.532-2.996-5.203-4.185-8.2-2.652-1.818.929-3.648 1.883-5.491 2.864-.198.106-.387.222-.569.345-35.358-15.965-75.539-22.287-116.673-16.092-55.137 8.305-103.74 37.585-136.855 82.445s-46.779 99.931-38.474 155.068c2.873 19.075 8.26 37.366 15.931 54.506-.167.312-.343.628-.508.939-1.58 2.972-.45 6.662 2.521 8.241.875.465 1.811.689 2.738.707 14.504 28.277 35.448 53.037 61.763 72.463 9.053 6.682 18.521 12.572 28.321 17.649-.151 1.2.048 2.456.656 3.606 1.093 2.066 3.206 3.246 5.392 3.246.961 0 1.935-.228 2.844-.708.6-.317 1.215-.657 1.821-.98 26.562 11.891 55.243 18.033 84.5 18.033 10.461 0 20.998-.785 31.534-2.372 38.424-5.787 73.663-21.777 102.709-46.113 9.007 1.548 19.084-1.504 26.551-8.97 7.882-7.883 11.006-18.996 8.517-28.643 32.437-44.627 45.778-99.173 37.552-153.788zm-45.203-66.44c-8.377 6.62-24.624 17.461-34.694 15.767-2.888-.488-4.986-2.061-6.6-4.952-12.026-21.524-34.677-10.625-46.845-4.769-.914.44-1.802.867-2.66 1.272-12.891 6.077-13.093 24.855-13.256 39.943-.055 5.121-.107 9.958-.626 13.421-.342 2.282-3.015 2.641-5.202 2.538-5.293-.247-12.823-4.116-13.191-10.74-1.039-18.676-8.482-39.035-22.121-60.511-8.257-13.001 6.206-53.94 18.463-79.699 52.782 9.875 99.028 42.077 126.732 87.73zm-347.553 125.598c-3.599-23.891-2.516-47.424 2.548-69.673 15.07 13.719 44.273 34.129 81.744 30.387 32.874-3.286 54.845 9.709 58.063 20.351.425 1.406 1.719 5.684-5.456 9.49-5.72 3.035-13.147 6.234-21.011 9.621-28.132 12.119-60.017 25.855-57.809 48.945.41 4.284.493 8.406.574 12.393.374 18.452.727 35.881 35.137 43.2 6.963 1.481 12.023 4.884 15.469 10.405 5.701 9.132 5.793 21.971 4.911 30.959-13.944-5.808-27.284-13.34-39.748-22.54-40.495-29.893-66.925-73.766-74.422-123.538zm214.401 158.268c-9.515 1.433-19.02 2.142-28.466 2.141-20.53-.001-40.748-3.358-59.998-9.893.452-3.497.814-7.758.812-12.383.144.754.43 1.494.874 2.178 1.168 1.796 3.122 2.773 5.116 2.773 1.138 0 2.29-.318 3.315-.985 3.331-2.165 6.716-4.417 10.062-6.694 2.783-1.893 3.504-5.683 1.611-8.466-1.895-2.783-5.683-3.503-8.467-1.61-3.276 2.229-6.59 4.433-9.849 6.551-1.505.978-2.428 2.509-2.69 4.152-.227-8.985-1.938-19.036-7.102-27.329-5.217-8.378-13.055-13.731-23.295-15.909-24.956-5.308-25.134-14.07-25.488-31.526-.085-4.211-.173-8.566-.627-13.306-1.362-14.249 28.612-27.162 50.499-36.591 8.097-3.488 15.744-6.783 21.901-10.048 10.038-5.325 14.303-14.217 11.41-23.785-5.2-17.195-33.153-32.728-70.941-28.951-36.809 3.677-65.54-20.367-76.925-31.766 20.646-67.123 78.153-120.082 152.112-131.222 9.476-1.427 18.879-2.119 28.185-2.119 7.365 0 14.658.44 21.852 1.286-3.168 6.958-7.813 17.767-11.898 29.64-9.809 28.513-11.228 47.648-4.338 58.498 12.508 19.696 19.318 38.084 20.241 54.654.737 13.23 13.184 21.696 24.793 22.237.392.018.778.028 1.161.028 8.985 0 15.469-4.986 16.66-12.934.644-4.295.7-9.542.76-15.096.119-11.07.282-26.23 6.265-29.05.887-.418 1.805-.86 2.748-1.314 16.592-7.984 25.449-10.061 30.921-.269 3.413 6.107 8.672 9.92 15.21 11.024 1.35.228 2.727.335 4.126.335 14.099-.002 30.216-10.832 38.651-17.359 1.705 3.28 3.321 6.617 4.837 10.014-1.671 2.901-.69 6.61 2.204 8.302.482.282.988.49 1.502.628 4.854 12.587 8.429 25.881 10.519 39.761 2.891 19.193 2.75 38.153-.039 56.403-8.162-2.31-20.3-5.476-34.048-8.171.763-2.975 1.208-6.014 1.3-9.07.305-10.081-3.235-19.341-9.967-26.073-.125-.126-.258-.242-.385-.365-.245-1.475-1.023-2.865-2.305-3.845-1.312-1.002-2.901-1.387-4.421-1.205-5.549-3.156-12.017-4.745-18.871-4.555-11.928.333-23.644 5.975-32.144 15.481l-8.417 9.413-65.355-38.384c-.154-.091-.311-.177-.47-.259-10.599-5.493-24.529-2.801-33.909 6.58-11.59 11.589-12.561 29.475-2.165 39.871.199.199.407.39.621.572l53.449 45.224-26.559 30.154-22.091-5.926c-6.471-2.706-14.164-1.053-19.545 4.329-7.045 7.045-7.437 18.116-.875 24.679l14.244 14.244c-1.333 5.817-.937 11.649 1.08 16.828-1.263 2.068-1.221 4.78.323 6.836 1.197 1.595 3.026 2.435 4.878 2.435.3 0 .601-.026.9-.071 6.644 6.455 16.092 8.802 25.496 6.647l14.758 14.758c3.129 3.129 7.282 4.677 11.535 4.677 4.668 0 9.457-1.865 13.143-5.551 2.459-2.458 4.128-5.402 4.966-8.49 1.1 8.177 3.621 14.99 6.288 20.256-9.542 3.072-19.446 5.439-29.678 6.981zm130.045-84.015-29.514-50.78 9.303-8.241c3.855-3.415 7.07-7.363 9.574-11.633 14.877 2.821 28.199 6.33 36.575 8.718-4.904 22.213-13.774 43.165-25.938 61.936zm-88.789 72.892c-5.23-9.636-10.682-27.327-.374-51.013 4.04-9.284 4.569-16.709 3.376-22.926l2.454-2.147 41.325 49.224c-14.036 11.023-29.747 20.12-46.781 26.862zm-11.55-55.877c-4.651 10.687-6.591 20.403-6.856 29.01-.046-.118-.084-.237-.133-.354l-6.173-22.481 15.615-13.657c-.463 2.249-1.246 4.709-2.453 7.482zm88.214 17.64c-3.791 3.792-8.685 4.26-10.924 2.366l-51.391-61.214c-1.755-2.09-4.277-3.387-6.998-3.596-2.721-.213-5.413.684-7.467 2.481l-42.763 37.401c-2.931 2.564-4.139 6.579-3.107 10.335l6.249 22.757-12.647-12.647c-1.949-1.949-4.548-2.976-7.185-2.976-1.507 0-3.027.336-4.444 1.026-3.695 1.8-7.577 1.611-9.657-.469-2.081-2.081-2.269-5.962-.47-9.659 1.896-3.896 1.113-8.565-1.95-11.628l-12.222-12.221 22.463 6.026c3.729.999 7.702-.2 10.254-3.097l37.573-42.658c1.803-2.048 2.707-4.735 2.507-7.456-.2-2.722-1.486-5.248-3.569-7.01l-60.929-51.553c-1.904-2.235-1.439-7.138 2.392-10.968 2.994-2.995 7.247-4.242 9.991-2.961l72.229 42.421c4.171 2.45 9.491 1.619 12.715-1.987l13.96-15.612c4.724-5.283 11.292-8.541 17.569-8.716 3.12-.09 7.564.542 11.051 4.028 3.5 3.499 4.122 7.965 4.027 11.095-.191 6.309-3.485 12.893-8.813 17.612l-15.529 13.756c-3.621 3.208-4.477 8.524-2.046 12.706l42.073 72.387c1.314 2.743.071 7.019-2.942 10.031z"/><path d="m148.41 487.128c-3.689 1.534-7.345 2.952-10.865 4.214-3.168 1.137-4.815 4.626-3.678 7.794.892 2.488 3.236 4.038 5.736 4.038.683 0 1.378-.115 2.057-.359 3.709-1.33 7.554-2.821 11.428-4.432 3.107-1.292 4.58-4.859 3.288-7.966-1.292-3.109-4.857-4.58-7.966-3.289z"/><path d="m64.515 427.181c2.493 0 4.832-1.541 5.73-4.02 1.275-3.519 2.704-7.171 4.246-10.854 1.3-3.105-.163-6.675-3.267-7.975-3.104-1.299-6.675.163-7.975 3.267-1.619 3.866-3.121 7.705-4.463 11.41-1.147 3.164.489 6.659 3.653 7.805.686.249 1.387.367 2.076.367z"/><path d="m61.561 462.004c.133-3.487.523-7.233 1.159-11.134.542-3.322-1.712-6.453-5.034-6.996-3.32-.544-6.454 1.711-6.996 5.034-.716 4.395-1.157 8.645-1.309 12.631-.129 3.363 2.494 6.194 5.857 6.322.079.003.158.004.237.004 3.259.001 5.96-2.577 6.086-5.861z"/><path d="m73.823 493.92c-1.25-.868-2.421-1.847-3.482-2.908-1.193-1.193-2.278-2.522-3.226-3.951-1.86-2.804-5.642-3.57-8.447-1.708-2.804 1.861-3.569 5.643-1.708 8.447 1.395 2.103 2.998 4.065 4.763 5.83 1.571 1.571 3.301 3.017 5.143 4.297 1.06.737 2.273 1.091 3.473 1.091 1.928 0 3.825-.913 5.009-2.616 1.921-2.763 1.238-6.561-1.525-8.482z"/><path d="m109.822 498.739c-3.9.612-7.641.973-11.121 1.076-3.364.099-6.011 2.906-5.912 6.271.097 3.303 2.805 5.915 6.088 5.915.061 0 .121-.001.182-.003 3.99-.117 8.246-.527 12.651-1.217 3.325-.522 5.598-3.64 5.076-6.965-.521-3.325-3.643-5.601-6.964-5.077z"/><path d="m464.53 96.824c2.166 2.166 3.956 4.763 5.321 7.718 1.029 2.229 3.233 3.541 5.536 3.541.854 0 1.723-.181 2.551-.563 3.055-1.41 4.389-5.031 2.978-8.087-1.968-4.264-4.582-8.041-7.768-11.227l-.33-.325c-2.413-2.346-6.271-2.293-8.617.121-2.346 2.413-2.292 6.271.121 8.617z"/><path d="m429.295 88.486c.214 0 .431-.011.649-.034 3.907-.415 7.596-.551 11.033-.402 3.349.126 6.204-2.465 6.349-5.828.144-3.362-2.466-6.205-5.828-6.349-3.965-.17-8.326-.019-12.837.459-3.347.355-5.773 3.355-5.418 6.702.33 3.128 2.974 5.452 6.052 5.452z"/><path d="m461.47 188.278c.799.353 1.634.52 2.455.52 2.341 0 4.574-1.357 5.579-3.637 1.685-3.821 3.263-7.621 4.689-11.296 1.218-3.137-.338-6.668-3.475-7.886-3.139-1.219-6.668.338-7.886 3.475-1.361 3.505-2.868 7.135-4.479 10.789-1.358 3.08.037 6.677 3.117 8.035z"/><path d="m479.634 125.232c-3.334-.328-6.331 2.121-6.659 5.47-.345 3.521-.928 7.277-1.733 11.163-.682 3.295 1.436 6.52 4.732 7.203.417.086.832.128 1.242.128 2.828 0 5.364-1.98 5.961-4.859.892-4.308 1.541-8.496 1.928-12.446.328-3.349-2.122-6.331-5.471-6.659z"/><path d="m418.691 260.104c1.06.737 2.272 1.09 3.471 1.09 1.929 0 3.826-.914 5.01-2.617 2.314-3.331 4.6-6.691 6.794-9.989 1.864-2.802 1.103-6.585-1.699-8.449-2.8-1.863-6.584-1.104-8.449 1.699-2.148 3.229-4.387 6.522-6.655 9.786-1.92 2.762-1.236 6.56 1.528 8.48z"/><path d="m388.987 99.214c.739 0 1.492-.135 2.222-.421 3.719-1.457 7.395-2.788 10.929-3.957 3.196-1.056 4.93-4.504 3.873-7.699-1.056-3.196-4.504-4.93-7.699-3.873-3.742 1.237-7.628 2.644-11.55 4.181-3.134 1.228-4.679 4.763-3.451 7.897.942 2.404 3.241 3.872 5.676 3.872z"/><path d="m146.54 330.733c3.365 0 6.094-2.729 6.094-6.094v-15.39c0-3.365-2.729-6.094-6.094-6.094s-6.094 2.729-6.094 6.094v15.39c0 3.365 2.729 6.094 6.094 6.094z"/><path d="m110.532 284.024c-3.366 0-6.094 2.729-6.094 6.094v15.39c0 3.365 2.729 6.094 6.094 6.094s6.094-2.729 6.094-6.094v-15.39c0-3.366-2.729-6.094-6.094-6.094z"/><path d="m322.123 180.742c3.365 0 6.094-2.729 6.094-6.094v-15.391c0-3.365-2.729-6.094-6.094-6.094s-6.094 2.729-6.094 6.094v15.391c0 3.365 2.728 6.094 6.094 6.094z"/></g><path d="m222.167 158.028c-3.889 0-7.601-2.247-9.285-6.03-2.28-5.125.025-11.128 5.15-13.408 3.428-1.526 6.957-2.982 10.489-4.33 5.242-2.002 11.11.628 13.11 5.868 2 5.241-.627 11.111-5.868 13.11-3.192 1.218-6.379 2.534-9.473 3.91-1.341.597-2.743.88-4.123.88z" fill="#fff"/><path d="m144.639 219.682c-2.134 0-4.285-.669-6.118-2.056-4.474-3.383-5.359-9.753-1.975-14.227 11.232-14.854 24.364-28.128 39.033-39.454 4.439-3.428 10.819-2.607 14.246 1.832 3.428 4.439 2.608 10.818-1.832 14.246-13.242 10.225-25.1 22.211-35.244 35.627-1.998 2.642-5.036 4.032-8.11 4.032z" fill="#fff"/></g><g><path d="m63.75 28.932-8.343 23.459c-.357 1.004-1.064 1.8-1.957 2.202l-20.843 9.39c-2.945 1.327-2.945 6.018 0 7.345l20.843 9.39c.892.402 1.6 1.198 1.957 2.202l8.343 23.459c1.179 3.314 5.347 3.314 6.526 0l8.343-23.459c.357-1.004 1.064-1.8 1.957-2.202l20.843-9.39c2.944-1.327 2.944-6.018 0-7.345l-20.843-9.39c-.892-.402-1.6-1.198-1.957-2.202l-8.343-23.459c-1.179-3.314-5.348-3.314-6.526 0z" fill="#b2e7f1"/><path d="m342.378 11.237-6.189 17.402c-.265.745-.79 1.335-1.451 1.634l-15.461 6.965c-2.184.984-2.184 4.464 0 5.448l15.461 6.966c.662.298 1.186.889 1.451 1.634l6.189 17.402c.874 2.458 3.966 2.458 4.84 0l6.189-17.402c.265-.745.789-1.335 1.451-1.634l15.461-6.966c2.184-.984 2.184-4.464 0-5.448l-15.461-6.965c-.662-.298-1.186-.889-1.451-1.634l-6.189-17.402c-.873-2.459-3.965-2.459-4.84 0z" fill="#b2e7f1"/><g fill="#8bb6ef"><ellipse cx="188.867" cy="18.218" rx="18.217" ry="18.217" transform="matrix(.987 -.159 .159 .987 -.491 30.315)"/><circle cx="34.724" cy="171.475" r="7.858"/></g></g></g></svg>