<svg id="Capa_1" enable-background="new 0 0 512 512" height="512" viewBox="0 0 512 512" width="512" xmlns="http://www.w3.org/2000/svg"><g><g><path d="m49.908 403.467h15.674c11.248 0 20.366-9.118 20.366-20.366v-32.074c0-11.248-9.118-20.366-20.366-20.366h-15.674c-11.248 0-20.366 9.118-20.366 20.366v32.074c0 11.248 9.118 20.366 20.366 20.366z" fill="#ef8bbd"/><path d="m204.077 498.765h-63.654c-37.718 0-68.295-30.576-68.295-68.295v-228.887c0-37.718 30.576-68.295 68.295-68.295h63.654c37.718 0 68.295 30.577 68.295 68.295v228.887c0 37.719-30.577 68.295-68.295 68.295z" fill="#a183e2"/><path d="m204.077 133.288h-37.588c28.713 0 51.99 23.277 51.99 51.99v185.813c0 28.713-23.277 51.99-51.99 51.99h-42.37c-28.713 0-51.99-23.277-51.99-51.99v59.38c0 37.718 30.576 68.295 68.295 68.295h63.654c37.718 0 68.295-30.576 68.295-68.295v-228.888c-.001-37.718-30.578-68.295-68.296-68.295z" fill="#9762e2"/><circle cx="118.084" cy="175.965" fill="#cab4ef" r="107.874"/><ellipse cx="118.084" cy="175.965" fill="#b2e7f1" rx="55.939" ry="55.939" transform="matrix(.924 -.383 .383 .924 -58.351 58.583)"/><path d="m451.133 365.358h-128.105c-27.977 0-50.657-22.68-50.657-50.657v-51.719c0-27.977 22.68-50.657 50.657-50.657h128.104c27.977 0 50.657 22.68 50.657 50.657v51.719c0 27.977-22.679 50.657-50.656 50.657z" fill="#a183e2"/><path d="m451.133 212.326h-32.325c21.898 0 39.65 17.752 39.65 39.65v60.782c0 8.368-6.784 15.152-15.152 15.152h-131.285c-21.898 0-39.649-17.752-39.649-39.649v26.441c0 27.977 22.68 50.657 50.656 50.657h128.105c27.977 0 50.657-22.68 50.657-50.657v-51.719c-.001-27.977-22.68-50.657-50.657-50.657z" fill="#9762e2"/><ellipse cx="201.36" cy="404.719" fill="#78eac4" rx="24.834" ry="24.834" transform="matrix(.23 -.973 .973 .23 -238.795 507.707)"/></g><g><g fill="#440a29"><path d="m180.149 175.965c0-34.222-27.842-62.064-62.065-62.064s-62.065 27.842-62.065 62.064c0 34.223 27.842 62.065 62.065 62.065s62.065-27.842 62.065-62.065zm-111.877 0c0-27.466 22.346-49.812 49.812-49.812s49.813 22.346 49.813 49.812c0 27.467-22.346 49.813-49.813 49.813s-49.812-22.346-49.812-49.813z"/><path d="m451.132 202.116h-128.104c-14.79-.053-29.439 5.569-40.446 15.434v-15.967c0-36.028-24.406-66.439-57.547-75.633-18.864-40.176-59.709-68.067-106.951-68.067-65.112-.001-118.084 52.971-118.084 118.082 0 44.794 25.072 83.842 61.918 103.85v40.635h-12.01c-16.859 0-30.576 13.716-30.576 30.576v32.075c0 16.86 13.717 30.576 30.576 30.576h12.01v16.793c0 43.288 35.217 78.505 78.505 78.505h63.654c43.288 0 78.505-35.217 78.505-78.505v-70.336c11.007 9.865 25.656 15.487 40.446 15.434h128.104c33.562 0 60.868-27.305 60.868-60.867v-51.718c0-33.563-27.306-60.867-60.868-60.867zm-430.712-26.151c0-53.851 43.812-97.663 97.664-97.663s97.663 43.811 97.663 97.663-43.811 97.664-97.663 97.664-97.664-43.812-97.664-97.664zm29.488 217.291c-5.6 0-10.155-4.556-10.155-10.155v-32.075c0-5.6 4.556-10.155 10.155-10.155h12.01v52.385zm212.254 37.214c0 32.028-26.057 58.085-58.085 58.085h-63.654c-32.028 0-58.084-26.057-58.084-58.085v-141.957c11.281 3.592 23.29 5.536 35.745 5.536 65.111 0 118.084-52.973 118.084-118.084 0-8.342-.875-16.482-2.528-24.34 17.057 10.128 28.522 28.722 28.522 49.957v61.4 51.718zm229.417-115.769c0 22.302-18.144 40.446-40.447 40.446h-128.104c-22.302 0-40.446-18.144-40.446-40.446v-51.718c0-22.302 18.144-40.446 40.446-40.446h128.104c22.303 0 40.447 18.144 40.447 40.446z"/><path d="m444.376 243.648h-114.591c-13.69 0-24.828 11.138-24.828 24.828v40.732c0 13.69 11.138 24.828 24.828 24.828h114.591c13.69 0 24.828-11.137 24.828-24.828v-40.732c0-13.691-11.138-24.828-24.828-24.828zm12.575 65.56c0 6.934-5.642 12.575-12.575 12.575h-114.591c-6.934 0-12.575-5.642-12.575-12.575v-40.732c0-6.934 5.642-12.575 12.575-12.575h114.591c6.934 0 12.575 5.641 12.575 12.575z"/><path d="m201.36 373.759c-17.072 0-30.96 13.889-30.96 30.96s13.889 30.96 30.96 30.96 30.96-13.888 30.96-30.96c0-17.071-13.889-30.96-30.96-30.96zm0 49.667c-10.315 0-18.708-8.393-18.708-18.707 0-10.315 8.393-18.708 18.708-18.708s18.707 8.393 18.707 18.708c.001 10.315-8.391 18.707-18.707 18.707z"/></g><ellipse cx="103.455" cy="164.236" fill="#fff" rx="17.506" ry="17.506" transform="matrix(.23 -.973 .973 .23 -80.157 227.19)"/><path d="m144.389 192.632c0 5.201-4.216 9.418-9.418 9.418-5.201 0-9.418-4.216-9.418-9.418 0-5.201 4.216-9.417 9.418-9.417 5.202-.001 9.418 4.216 9.418 9.417z" fill="#fff"/></g><g><path d="m466.358 5.523 8.387 23.583c.359 1.01 1.07 1.81 1.967 2.214l20.953 9.44c2.96 1.334 2.96 6.05 0 7.384l-20.953 9.44c-.897.404-1.608 1.204-1.967 2.214l-8.387 23.583c-1.185 3.332-5.375 3.332-6.56 0l-8.387-23.583c-.359-1.01-1.07-1.81-1.967-2.214l-20.953-9.44c-2.96-1.334-2.96-6.05 0-7.384l20.953-9.44c.897-.404 1.608-1.204 1.967-2.214l8.387-23.583c1.185-3.331 5.375-3.331 6.56 0z" fill="#cab4ef"/><path d="m346.823 74.661 6.221 17.494c.266.749.794 1.342 1.459 1.642l15.543 7.002c2.196.989 2.196 4.488 0 5.477l-15.543 7.002c-.665.3-1.193.893-1.459 1.642l-6.221 17.494c-.879 2.471-3.987 2.471-4.866 0l-6.221-17.494c-.266-.749-.794-1.342-1.459-1.642l-15.542-7.002c-2.196-.989-2.196-4.488 0-5.477l15.542-7.002c.665-.3 1.193-.893 1.459-1.642l6.221-17.494c.879-2.471 3.987-2.471 4.866 0z" fill="#cab4ef"/><g fill="#a183e2"><circle cx="239.953" cy="29.82" r="18.314"/><circle cx="471.449" cy="150.882" r="7.9"/></g></g></g></svg>